<mxfile host="Electron" modified="2024-01-04T15:26:13.572Z" agent="Mozilla/5.0 (Windows NT 10.0; Win64; x64) AppleWebKit/537.36 (KHTML, like Gecko) draw.io/22.1.16 Chrome/120.0.6099.109 Electron/28.1.0 Safari/537.36" etag="QceLoK4W9O-5rH4GKQDn" version="22.1.16" type="device">
  <diagram name="Page-1" id="4_lvmJtzrQCf_ZmJ0pp_">
    <mxGraphModel dx="1434" dy="836" grid="1" gridSize="10" guides="1" tooltips="1" connect="1" arrows="1" fold="1" page="1" pageScale="1" pageWidth="850" pageHeight="1100" math="0" shadow="0">
      <root>
        <mxCell id="0" />
        <mxCell id="1" parent="0" />
        <mxCell id="PbWmWGPsOTjTisIAavaW-8" value="" style="group" vertex="1" connectable="0" parent="1">
          <mxGeometry x="40" y="40" width="240" height="240" as="geometry" />
        </mxCell>
        <mxCell id="PbWmWGPsOTjTisIAavaW-6" value="" style="rounded=0;whiteSpace=wrap;html=1;" vertex="1" parent="PbWmWGPsOTjTisIAavaW-8">
          <mxGeometry width="240" height="240" as="geometry" />
        </mxCell>
        <mxCell id="PbWmWGPsOTjTisIAavaW-7" value="" style="group" vertex="1" connectable="0" parent="PbWmWGPsOTjTisIAavaW-8">
          <mxGeometry width="240" height="240" as="geometry" />
        </mxCell>
        <mxCell id="PbWmWGPsOTjTisIAavaW-2" value="" style="endArrow=none;html=1;rounded=0;exitX=0;exitY=0.5;exitDx=0;exitDy=0;entryX=0.5;entryY=1;entryDx=0;entryDy=0;" edge="1" parent="PbWmWGPsOTjTisIAavaW-7">
          <mxGeometry width="50" height="50" relative="1" as="geometry">
            <mxPoint y="120" as="sourcePoint" />
            <mxPoint x="120" y="240" as="targetPoint" />
          </mxGeometry>
        </mxCell>
        <mxCell id="PbWmWGPsOTjTisIAavaW-3" value="" style="endArrow=none;html=1;rounded=0;exitX=0.5;exitY=1;exitDx=0;exitDy=0;entryX=1;entryY=0.5;entryDx=0;entryDy=0;" edge="1" parent="PbWmWGPsOTjTisIAavaW-7">
          <mxGeometry width="50" height="50" relative="1" as="geometry">
            <mxPoint x="120" y="240" as="sourcePoint" />
            <mxPoint x="240" y="120" as="targetPoint" />
          </mxGeometry>
        </mxCell>
        <mxCell id="PbWmWGPsOTjTisIAavaW-4" value="" style="endArrow=none;html=1;rounded=0;exitX=0.5;exitY=0;exitDx=0;exitDy=0;entryX=0;entryY=0.5;entryDx=0;entryDy=0;" edge="1" parent="PbWmWGPsOTjTisIAavaW-7">
          <mxGeometry width="50" height="50" relative="1" as="geometry">
            <mxPoint x="120" as="sourcePoint" />
            <mxPoint y="120" as="targetPoint" />
          </mxGeometry>
        </mxCell>
        <mxCell id="PbWmWGPsOTjTisIAavaW-5" value="" style="endArrow=none;html=1;rounded=0;exitX=1;exitY=0.5;exitDx=0;exitDy=0;entryX=0.5;entryY=0;entryDx=0;entryDy=0;" edge="1" parent="PbWmWGPsOTjTisIAavaW-7">
          <mxGeometry width="50" height="50" relative="1" as="geometry">
            <mxPoint x="240" y="120" as="sourcePoint" />
            <mxPoint x="120" as="targetPoint" />
          </mxGeometry>
        </mxCell>
        <mxCell id="PbWmWGPsOTjTisIAavaW-9" value="Top" style="text;html=1;strokeColor=none;fillColor=none;align=center;verticalAlign=middle;whiteSpace=wrap;rounded=0;" vertex="1" parent="PbWmWGPsOTjTisIAavaW-8">
          <mxGeometry x="90" y="105" width="60" height="30" as="geometry" />
        </mxCell>
        <mxCell id="PbWmWGPsOTjTisIAavaW-10" value="Bottom" style="text;html=1;strokeColor=none;fillColor=none;align=center;verticalAlign=middle;whiteSpace=wrap;rounded=0;" vertex="1" parent="PbWmWGPsOTjTisIAavaW-8">
          <mxGeometry x="180" width="60" height="30" as="geometry" />
        </mxCell>
        <mxCell id="PbWmWGPsOTjTisIAavaW-11" value="Bottom" style="text;html=1;strokeColor=none;fillColor=none;align=center;verticalAlign=middle;whiteSpace=wrap;rounded=0;" vertex="1" parent="PbWmWGPsOTjTisIAavaW-8">
          <mxGeometry x="180" y="210" width="60" height="30" as="geometry" />
        </mxCell>
        <mxCell id="PbWmWGPsOTjTisIAavaW-12" value="Bottom" style="text;html=1;strokeColor=none;fillColor=none;align=center;verticalAlign=middle;whiteSpace=wrap;rounded=0;" vertex="1" parent="PbWmWGPsOTjTisIAavaW-8">
          <mxGeometry y="210" width="60" height="30" as="geometry" />
        </mxCell>
        <mxCell id="PbWmWGPsOTjTisIAavaW-13" value="Bottom" style="text;html=1;strokeColor=none;fillColor=none;align=center;verticalAlign=middle;whiteSpace=wrap;rounded=0;" vertex="1" parent="PbWmWGPsOTjTisIAavaW-8">
          <mxGeometry width="60" height="30" as="geometry" />
        </mxCell>
      </root>
    </mxGraphModel>
  </diagram>
</mxfile>
